<svg xmlns="http://www.w3.org/2000/svg" viewBox="0 811.355 900 688.645">
<g>
	<path fill="#FFFFFF" d="M13.5,811.355c291.335,0,582.659,0,874,0c0,229.665,0,459.34,0,689c-291.667,0-583.331,0-875,0
		c0-228.671,0-457.326,0-686C12.414,812.937,12.335,811.524,13.5,811.355z M443.5,830.355c-34.428-1.652-70.826,2.577-106,9
		c-32.934,6.015-65.145,14.788-84,30c-10.969,8.851-16.868,27.473-7,40c10.065,12.779,38.5,23.762,60,30
		c56.767,16.476,139.814,22.198,211,14c24.496-2.82,52.423-6.563,77-14c26.436-7.998,61.484-21.539,66-47
		c-3.172-2.161-1.658-9.008-4-12C616.767,837.641,519.802,829.273,443.5,830.355z M186.5,1350.355c0,32.538-2.902,63.456,10,80
		c15.986,20.498,41.314,31.288,69,41c43.416,15.23,94.533,23.932,149,28c21.591,1.613,48.979,1.854,72,0
		c44.11-3.553,93.021-8.168,134-22c33.556-11.324,84.035-29.635,92-64c4.118-17.769,1-41.748,1-63c0-152.842,0-303.655,0-453
		c-10.349,46.885-65.017,65.538-116,79c-44.514,11.755-97.816,16-148,16c-52.317,0-101.259-3.356-148-16
		c-50.515-13.663-107.692-35.326-115-79C186.5,1051.335,186.5,1197.585,186.5,1350.355z"/>
	<path d="M656.5,880.355c2.342,2.992,0.828,9.839,4,12c-4.516,25.461-39.564,39.002-66,47c-24.577,7.438-52.504,11.18-77,14
		c-71.186,8.198-154.233,2.476-211-14c-21.5-6.238-49.935-17.221-60-30c-9.868-12.527-3.969-31.149,7-40
		c18.855-15.212,51.066-23.985,84-30c35.174-6.423,71.572-10.652,106-9C519.802,829.273,616.767,837.641,656.5,880.355z"/>
	<path d="M186.5,897.355c7.308,43.674,64.485,65.337,115,79c46.741,12.644,95.683,16,148,16c50.184,0,103.486-4.245,148-16
		c50.983-13.462,105.651-32.115,116-79c0,149.345,0,300.158,0,453c0,21.252,3.118,45.231-1,63c-7.965,34.365-58.444,52.676-92,64
		c-40.979,13.832-89.89,18.447-134,22c-23.021,1.854-50.409,1.613-72,0c-54.467-4.068-105.584-12.77-149-28
		c-27.686-9.712-53.014-20.502-69-41c-12.902-16.544-10-47.462-10-80C186.5,1197.585,186.5,1051.335,186.5,897.355z M314.5,1127.355
		c-31.941,4.037-53.218,18.314-56,49c4.037,15.888,6.604,27.511,20,38c14.972,11.726,44.308,15.834,49,33
		c5.854,21.416-23.039,26.293-43,21c-9.412-2.494-18.929-12.771-24-12c0.615,10.719-1.264,23.932,1,33
		c40.284,20.125,98.272,5.761,104-30c2.506-15.646-1.688-29.517-7-36c-6.344-7.741-18.603-15.131-30-21
		c-11.821-6.087-27.172-12.746-30-21c-12.379-36.125,48.898-24.732,60-16c0-10.332,0-20.666,0-31
		C346.249,1129.607,331.154,1127.702,314.5,1127.355z M544.5,1222.355c0.729-6.645,0.741-14.442,0-21
		c-4.705-41.606-37.176-77.342-84-74c-25.775,1.841-40.331,13.471-56,25c-5.384,8.949-10.91,17.758-16,27
		c-16.467,62.503,11.488,116.601,71,119c5.317,5.005,11.148,11.334,18,19c4.891,5.473,11.332,17.172,18,19
		c12.771,3.504,29.673-1.709,45-1c-17.277-12.724-31.561-28.438-47-43C523.571,1279.345,540.667,1257.264,544.5,1222.355z
		 M573.5,1130.355c-2.333,53.002-0.334,110.334-1,165c33,0,66,0,99,0c-0.605-9.728,1.25-21.916-1-30c-20.333,0-40.667,0-61,0
		c0-45,0-90,0-135C597.5,1130.355,585.5,1130.355,573.5,1130.355z"/>
	<path fill="#FFFFFF" d="M358.5,1134.355c0,10.334,0,20.668,0,31c-11.102-8.732-72.379-20.125-60,16
		c2.828,8.254,18.179,14.913,30,21c11.397,5.869,23.656,13.259,30,21c5.313,6.483,9.506,20.354,7,36
		c-5.728,35.761-63.716,50.125-104,30c-2.264-9.068-0.385-22.281-1-33c5.071-0.771,14.588,9.506,24,12
		c19.961,5.293,48.854,0.416,43-21c-4.692-17.166-34.028-21.274-49-33c-13.396-10.489-15.963-22.112-20-38
		c2.782-30.686,24.059-44.963,56-49C331.154,1127.702,346.249,1129.607,358.5,1134.355z"/>
	<path fill="#FFFFFF" d="M493.5,1292.355c15.439,14.562,29.723,30.276,47,43c-15.327-0.709-32.229,4.504-45,1
		c-6.668-1.828-13.109-13.527-18-19c-6.852-7.666-12.683-13.995-18-19c-59.512-2.399-87.467-56.497-71-119
		c5.09-9.242,10.616-18.051,16-27c15.669-11.529,30.225-23.159,56-25c46.824-3.342,79.295,32.394,84,74
		c0.741,6.558,0.729,14.355,0,21C540.667,1257.264,523.571,1279.345,493.5,1292.355z M421.5,1225.355
		c5.781,43.643,58.178,56.047,78,22c9.796-16.823,9.192-52.487,0-69c-8.076-14.507-24.354-21.078-43-18
		C429.695,1164.782,417.476,1194.982,421.5,1225.355z"/>
	<path fill="#FFFFFF" d="M609.5,1130.355c0,45,0,90,0,135c20.333,0,40.667,0,61,0c2.25,8.084,0.395,20.272,1,30c-33,0-66,0-99,0
		c0.666-54.666-1.333-111.998,1-165C585.5,1130.355,597.5,1130.355,609.5,1130.355z"/>
	<path d="M456.5,1160.355c18.646-3.078,34.924,3.493,43,18c9.192,16.513,9.796,52.177,0,69c-19.822,34.047-72.219,21.643-78-22
		C417.476,1194.982,429.695,1164.782,456.5,1160.355z"/>
</g>
</svg>
